<svg width="19" height="22" viewBox="0 0 19 22" fill="none"  preserveAspectRatio="none"  xmlns="http://www.w3.org/2000/svg">
<path fill-rule="evenodd" clip-rule="evenodd" d="M18.5215 11C18.5215 13.8128 17.571 16.5104 15.8791 18.4994C14.1873 20.4883 11.8926 21.6057 9.5 21.6057C7.10735 21.6057 4.8127 20.4883 3.12084 18.4994C1.42899 16.5104 0.478516 13.8128 0.478516 11C0.478516 8.18718 1.42899 5.48958 3.12084 3.50062C4.8127 1.51167 7.10735 0.394287 9.5 0.394287C11.8926 0.394287 14.1873 1.51167 15.8791 3.50062C17.571 5.48958 18.5215 8.18718 18.5215 11ZM12.5072 11C12.5072 11.9376 12.1903 12.8368 11.6264 13.4998C11.0624 14.1628 10.2975 14.5352 9.5 14.5352C8.70245 14.5352 7.93757 14.1628 7.37361 13.4998C6.80966 12.8368 6.49284 11.9376 6.49284 11C6.49284 10.0624 6.80966 9.16319 7.37361 8.5002C7.93757 7.83722 8.70245 7.46476 9.5 7.46476C10.2975 7.46476 11.0624 7.83722 11.6264 8.5002C12.1903 9.16319 12.5072 10.0624 12.5072 11Z" fill="#999999"/>
</svg>
