<svg width="24" height="24" viewBox="0 0 24 24" fill="none" xmlns="http://www.w3.org/2000/svg">
<g clip-path="url(#clip0_957_217)">
<path fill-rule="evenodd" clip-rule="evenodd" d="M20.5017 3.48773C18.2458 1.23984 15.2456 0.00126346 12.0492 0C5.4631 0 0.102825 5.33464 0.100189 11.8918C0.0993107 13.9878 0.649554 16.0338 1.69515 17.8373L0 24L6.33434 22.3463C8.07957 23.2937 10.0446 23.793 12.0444 23.7938H12.0493C18.6347 23.7938 23.9955 18.4585 23.9982 11.9013C23.9994 8.72359 22.7577 5.73561 20.5017 3.48773ZM12.0493 21.7852H12.0453C10.2632 21.7845 8.51527 21.308 6.99047 20.4074L6.62778 20.1932L2.86895 21.1746L3.87227 17.527L3.6361 17.153C2.64195 15.5792 2.11686 13.7602 2.11764 11.8925C2.11982 6.4425 6.5751 2.00857 12.0533 2.00857C14.7059 2.00958 17.1995 3.0391 19.0746 4.90746C20.9497 6.77583 21.9818 9.25933 21.9807 11.9005C21.9785 17.3509 17.5233 21.7852 12.0493 21.7852ZM17.4969 14.3822C17.1983 14.2334 15.7305 13.5145 15.4568 13.4154C15.1831 13.3162 14.9841 13.2666 14.7851 13.5641C14.586 13.8616 14.0139 14.5309 13.8396 14.7292C13.6655 14.9276 13.4914 14.9524 13.1928 14.8036C12.8942 14.6549 11.9322 14.3411 10.7918 13.3287C9.90432 12.5409 9.30507 11.5677 9.13092 11.2702C8.95677 10.9727 9.1124 10.8119 9.26186 10.6637C9.39615 10.5306 9.56041 10.3167 9.7097 10.1431C9.85896 9.96962 9.90871 9.84567 10.0082 9.64738C10.1078 9.44905 10.058 9.2755 9.98336 9.12677C9.90871 8.97803 9.31164 7.5154 9.06281 6.92045C8.82049 6.341 8.57433 6.4194 8.39107 6.41033C8.21711 6.40171 8.01787 6.39987 7.81886 6.39987C7.61981 6.39987 7.29637 6.47425 7.02268 6.77171C6.74902 7.06921 5.97777 7.78812 5.97777 9.25072C5.97777 10.7133 7.04757 12.1263 7.19687 12.3246C7.34613 12.523 9.30214 15.5245 12.2971 16.8116C13.0095 17.1178 13.5656 17.3006 13.9992 17.4376C14.7144 17.6637 15.3653 17.6318 15.8797 17.5553C16.4534 17.47 17.6462 16.8364 17.895 16.1423C18.1438 15.4482 18.1438 14.8532 18.0691 14.7293C17.9945 14.6053 17.7955 14.5309 17.4969 14.3822Z" fill="#0D1E4F"/>
</g>
<defs>
<clipPath id="clip0_957_217">
<rect width="24" height="24" fill="white"/>
</clipPath>
</defs>
</svg>
