<svg width="40" height="40" viewBox="0 0 40 40" fill="none" xmlns="http://www.w3.org/2000/svg">
<g clip-path="url(#clip0_382_49)">
<path fill-rule="evenodd" clip-rule="evenodd" d="M34.1695 5.81288C30.4097 2.0664 25.4093 0.00210576 20.082 0C9.10516 0 0.171375 8.89107 0.166982 19.8197C0.165518 23.313 1.08259 26.7231 2.82525 29.7288L0 40L10.5572 37.2438C13.4659 38.8228 16.7409 39.6549 20.074 39.6563H20.0822C31.0579 39.6563 39.9925 30.7641 39.9969 19.8355C39.9991 14.5393 37.9295 9.55936 34.1695 5.81288ZM20.0822 36.3087H20.0754C17.1053 36.3075 14.1921 35.5134 11.6508 34.0123L11.0463 33.6553L4.78158 35.2909L6.45378 29.2116L6.06016 28.5884C4.40325 25.9654 3.5281 22.9337 3.5294 19.8209C3.53303 10.7375 10.9585 3.34762 20.0888 3.34762C24.5099 3.3493 28.6659 5.06517 31.791 8.17911C34.9162 11.293 36.6363 15.4322 36.6346 19.8342C36.6308 28.9182 29.2054 36.3087 20.0822 36.3087ZM29.1616 23.9703C28.6639 23.7224 26.2175 22.5242 25.7613 22.3589C25.3052 22.1937 24.9736 22.1111 24.6418 22.6069C24.3101 23.1027 23.3564 24.2182 23.0661 24.5487C22.7759 24.8793 22.4856 24.9206 21.988 24.6727C21.4904 24.4248 19.8871 23.9019 17.9864 22.2146C16.5072 20.9014 15.5084 19.2795 15.2182 18.7837C14.9279 18.2879 15.1873 18.0198 15.4364 17.7729C15.6602 17.551 15.934 17.1945 16.1828 16.9052C16.4316 16.616 16.5145 16.4095 16.6804 16.079C16.8463 15.7484 16.7633 15.4592 16.6389 15.2113C16.5145 14.9634 15.5194 12.5257 15.1047 11.5341C14.7008 10.5683 14.2905 10.699 13.9851 10.6839C13.6952 10.6695 13.3631 10.6664 13.0314 10.6664C12.6997 10.6664 12.1606 10.7904 11.7045 11.2862C11.2484 11.782 9.96295 12.9802 9.96295 15.4179C9.96295 17.8555 11.746 20.2105 11.9948 20.5411C12.2435 20.8716 15.5036 25.8741 20.4952 28.0193C21.6824 28.5296 22.6093 28.8343 23.332 29.0627C24.5241 29.4395 25.6088 29.3863 26.4662 29.2588C27.4223 29.1167 29.4103 28.0607 29.825 26.9038C30.2396 25.747 30.2396 24.7554 30.1152 24.5488C29.9909 24.3422 29.6591 24.2182 29.1616 23.9703Z" fill="#0A0A4A"/>
</g>
<defs>
<clipPath id="clip0_382_49">
<rect width="40" height="40" fill="white"/>
</clipPath>
</defs>
</svg>
